<svg viewBox="0 0 340 340" xmlns="http://www.w3.org/2000/svg" xml:space="preserve" style="fill-rule:evenodd;clip-rule:evenodd;stroke-linejoin:round;stroke-miterlimit:2"><path d="m242.604 518.591 1.544 85.424 207.817-2.794-63.684 199.342 82.15 27.22 98.304-314.156-326.131 4.964z" style="fill:#0030bc" transform="matrix(.5401 0 0 .5401 -98.794 -132.733)"/><path d="m467.781 293.254-79.937 26.329 40.866 126.143 81.952-27.183-42.881-125.289z" style="fill:#0033c5" transform="matrix(.5401 0 0 .5401 -98.794 -132.733)"/><path d="m702.523 368.511-109.585 75.811 49.042 67.681 109.321-75.366-48.778-68.126z" style="fill:#025de3" transform="matrix(.5401 0 0 .5401 -98.794 -132.733)"/><path d="m643.188 602.445-48.837 66.019 107.653 81.762 50.753-68.649-109.569-79.132z" style="fill:#0e6acc" transform="matrix(.5401 0 0 .5401 -98.794 -132.733)"/></svg>